<svg height="512" viewBox="0 0 64 64" width="512" xmlns="http://www.w3.org/2000/svg"><g id="Layer_33" data-name="Layer 33"><rect fill="#57a4ff" height="38" rx="2" width="28" x="13" y="3"/><path d="m41 5v34a2.006 2.006 0 0 1 -2 2h-24a2.006 2.006 0 0 1 -2-2v-2h22a2.006 2.006 0 0 0 2-2v-32h2a2.006 2.006 0 0 1 2 2z" fill="#006df0"/><path d="m33 27h4v4h-4z" fill="#00d7df"/><path d="m25 27h4v4h-4z" fill="#ff7956"/><circle cx="27" cy="21" fill="#ffde55" r="2"/><path d="m17 27h4v4h-4z" fill="#ffde55"/><path d="m36.79 41h2.21a2.006 2.006 0 0 0 2-2v-15l14.32 8.48a12.01 12.01 0 0 1 5.68 10.2v17.32a1 1 0 0 1 -1 1h-18a8 8 0 0 1 -8-8v-2l-7.78-9.12a3.687 3.687 0 0 1 -.66-.88 4 4 0 0 1 6.32-4.78z" fill="#ffdaaa"/><path d="m61 42.68v17.32a1 1 0 0 1 -1 1h-4a1 1 0 0 0 1-1v-17.32a12.01 12.01 0 0 0 -5.68-10.2l-10.32-6.11v-2.37l14.32 8.48a12.01 12.01 0 0 1 5.68 10.2z" fill="#ffc477"/></g><g id="Layer_34" data-name="Layer 34"><g id="RFID"><path d="m55.83 31.62-13.83-8.19v-18.43a3.009 3.009 0 0 0 -3-3h-24a3.009 3.009 0 0 0 -3 3v34a3.009 3.009 0 0 0 3 3h10.03a4.332 4.332 0 0 0 .43.53l7.54 8.84v1.63a9.014 9.014 0 0 0 9 9h18a2.006 2.006 0 0 0 2-2v-17.32a12.931 12.931 0 0 0 -6.17-11.06zm-31.78 7.43a5.014 5.014 0 0 0 .09.95h-9.14a1 1 0 0 1 -1-1v-34a1 1 0 0 1 1-1h24a1 1 0 0 1 1 1v34a1 1 0 0 1 -1 1h-1.81l-4.6-4.49a5 5 0 0 0 -8.54 3.54zm35.95 20.95h-18a7.008 7.008 0 0 1 -7-7v-2a.969.969 0 0 0 -.24-.65l-7.83-9.18a2.994 2.994 0 0 1 0-4.24 3.068 3.068 0 0 1 4.25.01l13.12 12.78 1.4-1.44-6.48-6.3a3 3 0 0 0 2.78-2.98v-13.25l12.79 7.58a10.941 10.941 0 0 1 5.21 9.35z"/><path d="m21 26h-4a1 1 0 0 0 -1 1v4a1 1 0 0 0 1 1h4a1 1 0 0 0 1-1v-4a1 1 0 0 0 -1-1zm-1 4h-2v-2h2z"/><path d="m25 32h4a1 1 0 0 0 1-1v-4a1 1 0 0 0 -1-1h-4a1 1 0 0 0 -1 1v4a1 1 0 0 0 1 1zm1-4h2v2h-2z"/><path d="m33 26a1 1 0 0 0 -1 1v4a1 1 0 0 0 1 1h4a1 1 0 0 0 1-1v-4a1 1 0 0 0 -1-1zm3 4h-2v-2h2z"/><path d="m27 8a12.95 12.95 0 0 1 9.194 3.809l1.406-1.417a15 15 0 0 0 -21.21 0l1.411 1.417a12.95 12.95 0 0 1 9.199-3.809z"/><path d="m34.777 13.223a10.994 10.994 0 0 0 -15.554 0l1.414 1.414a9 9 0 0 1 12.726 0z"/><path d="m30.53 17.464 1.421-1.408a6.989 6.989 0 0 0 -9.9 0l1.421 1.408a4.988 4.988 0 0 1 7.06 0z"/><path d="m24 21a3 3 0 1 0 3-3 3 3 0 0 0 -3 3zm4 0a1 1 0 1 1 -1-1 1 1 0 0 1 1 1z"/></g></g></svg>