<?xml version="1.0" encoding="UTF-8" standalone="no"?><!-- Generator: Gravit.io --><svg xmlns="http://www.w3.org/2000/svg" xmlns:xlink="http://www.w3.org/1999/xlink" style="isolation:isolate" viewBox="0 0 512 512" width="512pt" height="512pt"><defs><clipPath id="_clipPath_YJx9SJXFBLrfb5140Nld9XWTQvvxZARz"><rect width="512" height="512"/></clipPath></defs><g clip-path="url(#_clipPath_YJx9SJXFBLrfb5140Nld9XWTQvvxZARz)"><g><g><path d=" M 254.01 0 C 163.109 0 89.01 74.099 89.01 165 L 89.01 257 L 179.01 257 L 179.01 165 C 179.01 123.6 212.61 90 254.01 90 C 295.41 90 329.01 123.6 329.01 165 L 329.01 257 L 419.01 257 L 419.01 165 C 419.01 74.099 344.911 0 254.01 0 Z " fill="rgb(90,90,90)"/><path d=" M 419.01 165 L 419.01 257 L 329.01 257 L 329.01 165 C 329.01 123.6 295.41 90 254.01 90 L 254.01 0 C 344.911 0 419.01 74.099 419.01 165 Z " fill="rgb(68,68,68)"/></g><path d=" M 405.992 256 L 106.008 256 C 81.108 256 61.01 276.099 61.01 300.998 L 61.01 480.989 C 61.01 505.889 81.108 525.987 106.008 525.987 L 405.993 525.987 C 430.893 525.987 450.99 505.889 450.99 480.989 L 450.99 300.998 C 450.99 276.099 430.891 256 405.992 256 Z " fill="rgb(106,184,225)"/><path d=" M 449.99 300.998 L 449.99 480.989 C 449.99 505.889 429.17 525.987 403.376 525.987 L 248.001 525.987 L 248.001 256 L 403.376 256 C 429.17 256 449.99 276.099 449.99 300.998 Z " fill="rgb(21,156,228)"/><path d=" M 292.998 360.995 C 292.998 380.495 280.4 396.993 263 403.292 L 263 450.991 C 263 460.892 255.5 465.99 248.001 465.99 C 240.502 465.99 233.002 460.891 233.002 450.991 L 233.002 403.292 C 215.602 396.993 203.004 380.495 203.004 360.995 C 203.004 336.095 223.102 315.997 248.002 315.997 C 272.902 315.997 292.998 336.096 292.998 360.995 Z " fill="rgb(120,119,128)"/><path d=" M 292.998 360.995 C 292.998 380.495 280.4 396.993 263 403.292 L 263 450.991 C 263 460.892 255.5 465.99 248.001 465.99 L 248.001 315.997 C 272.9 315.997 292.998 336.096 292.998 360.995 Z " fill="rgb(87,85,92)"/></g></g></svg>