<?xml version="1.0" encoding="UTF-8" standalone="no"?><!-- Generator: Gravit.io --><svg xmlns="http://www.w3.org/2000/svg" xmlns:xlink="http://www.w3.org/1999/xlink" style="isolation:isolate" viewBox="0 0 512 512" width="512pt" height="512pt"><defs><clipPath id="_clipPath_mUyIp7IiVvpuGgA0w2WSvSO2A9xvjh9K"><rect width="512" height="512"/></clipPath></defs><g clip-path="url(#_clipPath_mUyIp7IiVvpuGgA0w2WSvSO2A9xvjh9K)"><g><path d=" M 272.066 512 L 239.933 512 C 213.944 512 192.799 490.856 192.799 464.867 L 192.799 453.996 C 181.75 450.466 171.015 446.01 160.702 440.673 L 152.998 448.377 C 134.339 467.059 104.45 466.511 86.333 448.37 L 63.622 425.66 C 45.473 407.531 44.951 377.652 63.628 358.995 L 71.326 351.297 C 65.989 340.984 61.534 330.251 58.003 319.2 L 47.133 319.2 C 21.145 319.2 0 298.056 0 272.067 L 0 239.933 C 0 213.944 21.145 192.8 47.134 192.8 L 58.004 192.8 C 61.535 181.75 65.99 171.016 71.327 160.703 L 63.623 153 C 44.957 134.354 45.472 104.472 63.629 86.335 L 86.342 63.623 C 104.501 45.439 134.383 44.985 153.006 63.629 L 160.703 71.326 C 171.016 65.99 181.751 61.534 192.8 58.003 L 192.8 47.133 C 192.8 21.144 213.944 0 239.934 0 L 272.067 0 C 298.056 0 319.2 21.144 319.2 47.133 L 319.2 58.004 C 330.249 61.534 340.984 65.99 351.297 71.327 L 359.001 63.623 C 377.66 44.941 407.549 45.489 425.666 63.63 L 448.377 86.34 C 466.526 104.469 467.048 134.348 448.371 153.005 L 440.673 160.703 C 446.01 171.016 450.465 181.749 453.996 192.8 L 464.866 192.8 C 490.855 192.8 512 213.944 512 239.933 L 512 272.067 C 512 298.056 490.855 319.2 464.866 319.2 L 453.996 319.2 C 450.465 330.25 446.01 340.984 440.673 351.297 L 448.377 359.001 C 467.043 377.647 466.528 407.529 448.371 425.666 L 425.658 448.378 C 407.499 466.562 377.617 467.016 358.994 448.372 L 351.297 440.675 C 340.984 446.011 330.249 450.467 319.2 453.998 L 319.2 464.869 C 319.2 490.856 298.056 512 272.066 512 L 272.066 512 Z  M 165.717 409.17 C 180.044 417.643 195.464 424.044 211.548 428.195 C 218.172 429.904 222.8 435.878 222.8 442.719 L 222.8 464.867 C 222.8 474.314 230.487 482 239.934 482 L 272.067 482 C 281.514 482 289.201 474.314 289.201 464.867 L 289.201 442.719 C 289.201 435.878 293.829 429.904 300.453 428.195 C 316.537 424.044 331.957 417.643 346.284 409.17 C 352.179 405.684 359.684 406.632 364.527 411.475 L 380.215 427.164 C 386.979 433.936 397.841 433.779 404.439 427.171 L 427.166 404.445 C 433.748 397.871 433.968 387.007 427.172 380.22 L 411.477 364.525 C 406.635 359.683 405.687 352.177 409.172 346.283 C 417.645 331.957 424.045 316.537 428.196 300.452 C 429.906 293.828 435.88 289.201 442.72 289.201 L 464.867 289.201 C 474.314 289.201 482.001 281.515 482.001 272.068 L 482.001 239.934 C 482.001 230.487 474.314 222.801 464.867 222.801 L 442.72 222.801 C 435.879 222.801 429.906 218.173 428.196 211.55 C 424.045 195.465 417.644 180.045 409.172 165.719 C 405.687 159.825 406.635 152.319 411.477 147.477 L 427.166 131.788 C 433.948 125.014 433.771 114.154 427.172 107.563 L 404.447 84.838 C 397.86 78.242 386.996 78.049 380.222 84.832 L 364.528 100.527 C 359.686 105.37 352.178 106.318 346.285 102.832 C 331.958 94.359 316.538 87.958 300.454 83.807 C 293.83 82.098 289.202 76.124 289.202 69.283 L 289.202 47.133 C 289.202 37.686 281.515 30 272.068 30 L 239.935 30 C 230.488 30 222.801 37.686 222.801 47.133 L 222.801 69.281 C 222.801 76.122 218.173 82.096 211.549 83.805 C 195.465 87.956 180.045 94.357 165.718 102.83 C 159.822 106.315 152.317 105.367 147.475 100.525 L 131.787 84.836 C 125.023 78.064 114.16 78.221 107.563 84.829 L 84.836 107.555 C 78.254 114.129 78.034 124.992 84.83 131.78 L 100.525 147.475 C 105.367 152.317 106.315 159.823 102.83 165.717 C 94.357 180.043 87.957 195.463 83.806 211.548 C 82.096 218.172 76.122 222.799 69.282 222.799 L 47.134 222.799 C 37.687 222.8 30 230.486 30 239.933 L 30 272.067 C 30 281.514 37.687 289.2 47.134 289.2 L 69.281 289.2 C 76.122 289.2 82.095 293.828 83.805 300.451 C 87.956 316.536 94.357 331.956 102.829 346.282 C 106.314 352.176 105.366 359.682 100.524 364.524 L 84.835 380.213 C 78.053 386.987 78.23 397.847 84.829 404.438 L 107.554 427.163 C 114.141 433.759 125.005 433.952 131.779 427.169 L 147.473 411.474 C 151.041 407.907 158.464 404.88 165.717 409.17 L 165.717 409.17 Z " fill="rgb(255,255,255)"/><path d=" M 256 367.4 C 194.573 367.4 144.6 317.426 144.6 256 C 144.6 194.574 194.573 144.6 256 144.6 C 317.427 144.6 367.4 194.574 367.4 256 C 367.4 317.426 317.427 367.4 256 367.4 L 256 367.4 Z  M 256 174.6 C 211.115 174.6 174.6 211.116 174.6 256 C 174.6 300.884 211.116 337.4 256 337.4 C 300.884 337.4 337.4 300.884 337.4 256 C 337.4 211.116 300.885 174.6 256 174.6 L 256 174.6 Z " fill="rgb(255,255,255)"/></g></g></svg>