<?xml version="1.0" encoding="UTF-8" standalone="no"?><!-- Generator: Gravit.io --><svg xmlns="http://www.w3.org/2000/svg" xmlns:xlink="http://www.w3.org/1999/xlink" style="isolation:isolate" viewBox="0 0 512 512" width="512pt" height="512pt"><defs><clipPath id="_clipPath_7kNQcxdJVqWDZwpWdzzOgqMvF2tGhPWl"><rect width="512" height="512"/></clipPath></defs><g clip-path="url(#_clipPath_7kNQcxdJVqWDZwpWdzzOgqMvF2tGhPWl)"><g><g><g><path d=" M 437.333 128 L 320 128 L 320 42.667 C 320 19.135 300.865 0 277.333 0 L 106.667 0 C 83.135 0 64 19.135 64 42.667 L 64 469.334 C 64 492.865 83.135 512 106.667 512 L 277.334 512 C 300.865 512 320 492.865 320 469.333 L 320 213.333 L 437.333 213.333 C 443.229 213.333 448 208.562 448 202.666 L 448 138.666 C 448 132.771 443.229 128 437.333 128 Z  M 298.667 469.333 C 298.667 481.093 289.094 490.666 277.334 490.666 L 106.667 490.666 C 94.907 490.666 85.334 481.093 85.334 469.333 L 85.334 42.667 C 85.334 30.907 94.907 21.334 106.667 21.334 L 277.334 21.334 C 289.094 21.334 298.667 30.907 298.667 42.667 L 298.667 128 L 239.459 128 C 227.282 114.375 210.271 106.667 192.001 106.667 C 156.709 106.667 128.001 135.375 128.001 170.667 C 128.001 205.959 156.709 234.667 192.001 234.667 C 210.272 234.667 227.282 226.959 239.459 213.334 L 298.667 213.334 L 298.667 469.333 L 298.667 469.333 Z  M 426.667 192 L 234.427 192 C 231.083 192 227.937 193.563 225.917 196.24 C 217.709 207.105 205.344 213.334 192 213.334 C 168.469 213.334 149.333 194.199 149.333 170.667 C 149.333 147.135 168.469 128 192 128 C 205.344 128 217.708 134.229 225.917 145.094 C 227.938 147.771 231.084 149.334 234.427 149.334 L 426.667 149.334 L 426.667 192 L 426.667 192 Z " fill="rgb(255,255,255)"/><path d=" M 128 309.333 C 128 315.229 132.771 320 138.667 320 L 245.334 320 C 251.23 320 256.001 315.229 256.001 309.333 C 256.001 303.437 251.23 298.666 245.334 298.666 L 138.667 298.666 C 132.771 298.667 128 303.438 128 309.333 Z " fill="rgb(255,255,255)"/><path d=" M 245.333 384 L 138.667 384 C 132.771 384 128 388.771 128 394.667 C 128 400.563 132.771 405.334 138.667 405.334 L 245.334 405.334 C 251.23 405.334 256.001 400.563 256.001 394.667 C 256.001 388.771 251.229 384 245.333 384 Z " fill="rgb(255,255,255)"/><path d=" M 379.74 322.188 C 375.042 318.657 368.355 319.605 364.802 324.313 C 361.271 329.021 362.219 335.709 366.927 339.251 C 377.771 347.397 383.99 359.834 383.99 373.386 C 383.99 386.928 377.782 399.365 366.959 407.511 C 362.251 411.053 361.303 417.73 364.844 422.438 C 366.938 425.23 370.136 426.698 373.375 426.698 C 375.604 426.698 377.854 426 379.771 424.552 C 396.011 412.344 405.323 393.698 405.323 373.385 C 405.323 353.063 396 334.406 379.74 322.188 Z " fill="rgb(255,255,255)"/><path d=" M 410.604 292.281 C 406.125 288.458 399.406 288.968 395.573 293.458 C 391.74 297.937 392.271 304.666 396.75 308.489 C 415.75 324.739 426.656 348.395 426.656 373.385 C 426.656 398.385 415.75 422.041 396.739 438.281 C 392.26 442.114 391.729 448.844 395.551 453.323 C 397.666 455.792 400.655 457.063 403.666 457.063 C 406.124 457.063 408.583 456.219 410.593 454.511 C 434.364 434.198 447.989 404.636 447.989 373.386 C 447.99 342.146 434.365 312.583 410.604 292.281 Z " fill="rgb(255,255,255)"/></g></g></g></g></svg>