<?xml version="1.0" encoding="UTF-8" standalone="no"?><!-- Generator: Gravit.io --><svg xmlns="http://www.w3.org/2000/svg" xmlns:xlink="http://www.w3.org/1999/xlink" style="isolation:isolate" viewBox="0 0 512 512" width="512pt" height="512pt"><defs><clipPath id="_clipPath_jvisKiVbAIAuxWYS2UPF2JAKHUb11TWR"><rect width="512" height="512"/></clipPath></defs><g clip-path="url(#_clipPath_jvisKiVbAIAuxWYS2UPF2JAKHUb11TWR)"><g><g><path d=" M 510.413 129.292 C 506.708 121.883 497.7 118.879 490.289 122.584 L 430.289 152.584 C 422.879 156.289 419.876 165.299 423.581 172.709 C 427.285 180.118 436.294 183.122 443.705 179.417 L 503.705 149.417 C 511.115 145.712 514.118 136.702 510.413 129.292 Z " fill="rgb(255,255,255)"/></g></g><g><g><path d=" M 503.705 302.583 L 443.705 272.583 C 436.299 268.88 427.287 271.881 423.581 279.291 C 419.876 286.701 422.879 295.711 430.289 299.416 L 490.289 329.416 C 497.699 333.121 506.709 330.117 510.413 322.708 C 514.118 315.298 511.115 306.288 503.705 302.583 Z " fill="rgb(255,255,255)"/></g></g><g><g><path d=" M 345.998 241 L 119.999 241 L 119.999 165 C 119.999 123.645 154.093 90 195.999 90 C 237.354 90 270.999 123.645 270.999 165 L 270.999 195 C 270.999 203.284 277.715 210 285.999 210 L 345.999 210 C 354.283 210 360.999 203.284 360.999 195 L 360.999 165 C 360.999 74.02 286.981 0.001 196 0.001 C 104.467 0.002 30 74.02 30 165.001 L 30 243.581 C 12.541 249.772 0 266.445 0 286 L 0 466.999 C 0 491.812 20.187 511.999 45 511.999 L 345.998 511.999 C 370.811 511.999 390.998 491.812 390.998 466.999 L 390.998 286 C 390.998 261.187 370.811 241 345.998 241 Z  M 60 165.001 C 60 90.562 121.01 30.002 195.999 30.002 C 270.438 30.002 330.998 90.563 330.998 165.001 L 330.998 180.001 L 300.998 180.001 L 300.998 165.001 C 300.998 107.104 253.895 60.002 195.999 60.002 C 137.931 60.002 90 107.122 90 165.001 L 90 241.001 L 60 241.001 L 60 165.001 L 60 165.001 Z  M 360.998 466.999 C 360.998 475.27 354.269 481.999 345.998 481.999 L 45 481.999 C 36.729 481.999 30 475.27 30 466.999 L 30 286 C 30 277.729 36.729 271 45 271 C 58.988 271 333.883 271 345.998 271 C 354.269 271 360.998 277.729 360.998 286 L 360.998 466.999 L 360.998 466.999 Z " fill="rgb(255,255,255)"/></g></g><g><g><path d=" M 195.999 301 C 171.186 301 150.999 321.187 150.999 346 C 150.999 365.555 163.54 382.228 180.999 388.42 L 180.999 437 C 180.999 445.284 187.715 452 195.999 452 C 204.283 452 210.999 445.284 210.999 437 L 210.999 388.42 C 228.458 382.228 240.999 365.555 240.999 346 C 240.999 321.187 220.812 301 195.999 301 Z  M 195.999 360.999 C 187.728 360.999 180.999 354.27 180.999 345.999 C 180.999 337.728 187.728 330.999 195.999 330.999 C 204.27 330.999 210.999 337.728 210.999 345.999 C 210.999 354.27 204.27 360.999 195.999 360.999 Z " fill="rgb(255,255,255)"/></g></g><g><g><path d=" M 496.997 211 L 436.997 211 C 428.713 211 421.997 217.716 421.997 226 C 421.997 234.284 428.713 241 436.997 241 L 496.997 241 C 505.281 241 511.997 234.284 511.997 226 C 511.997 217.716 505.281 211 496.997 211 Z " fill="rgb(255,255,255)"/></g></g></g></svg>